<svg width="20" height="19" viewBox="0 0 20 19" fill="none" xmlns="http://www.w3.org/2000/svg">
<path fill-rule="evenodd" clip-rule="evenodd" d="M18.9838 0.755887C19.131 0.986601 19.0981 1.28867 18.9045 1.4822L9.00506 11.3817C8.82393 11.5628 8.54592 11.6046 8.31964 11.4847L1.30748 7.77247C1.10385 7.66467 0.982753 7.44708 0.998428 7.21725C1.0141 6.98736 1.16361 6.78827 1.37999 6.70911L18.2916 0.521901C18.5487 0.427863 18.8365 0.525175 18.9838 0.755887ZM3.01148 7.35451L8.48473 10.2521L16.2117 2.52516L3.01148 7.35451Z" fill="white"/>
<path fill-rule="evenodd" clip-rule="evenodd" d="M18.8055 0.576978C19.0362 0.724231 19.1335 1.01208 19.0395 1.26912L12.8523 18.1807C12.7731 18.3971 12.574 18.5467 12.3441 18.5623C12.1143 18.578 11.8967 18.4569 11.7889 18.2532L8.07659 11.2411C7.95677 11.0148 7.99859 10.7368 8.17966 10.5557L18.0792 0.656217C18.2727 0.462683 18.5748 0.429728 18.8055 0.576978ZM17.0362 3.34909L9.30929 11.076L12.2069 16.5493L17.0362 3.34909Z" fill="white"/>
</svg>
